<?xml version="1.0" encoding="utf-8"?>
<!-- Generator: Adobe Illustrator 15.0.2, SVG Export Plug-In . SVG Version: 6.00 Build 0)  -->
<!DOCTYPE svg PUBLIC "-//W3C//DTD SVG 1.1//EN" "http://www.w3.org/Graphics/SVG/1.1/DTD/svg11.dtd">
<svg version="1.1" id="Layer_1" xmlns="http://www.w3.org/2000/svg" xmlns:xlink="http://www.w3.org/1999/xlink" x="0px" y="0px"
	 width="88px" height="88px" viewBox="2.022 2.531 88 88" enable-background="new 2.022 2.531 88 88" xml:space="preserve">
<g>
	<g>
		<g>
			<path fill="#FFFFFF" d="M46.018,90.267c24.299,0,43.997-19.64,43.997-43.868c0-24.228-19.698-43.868-43.997-43.868
				c-24.298,0-43.997,19.64-43.997,43.868C2.022,70.626,21.72,90.267,46.018,90.267"/>
		</g>
	</g>
	<g>
		<g>
			<path fill="#E30613" d="M46.126,90.531c-10.64,0-20.924-3.63-28.219-9.96l-0.104-0.07l-0.142-0.123
				C6.619,70.801,1.11,57.595,2.146,43.194c0.98-13.631,8.638-26.352,20.484-34.027c6.604-4.279,15.069-6.636,23.836-6.636
				c7.287,0,14.097,1.64,19.691,4.743c6.213,3.445,11.192,7.552,14.798,12.206c8.158,10.532,11.039,24.726,7.708,37.97
				c-3.556,14.144-15.993,27.287-29.572,31.252C54.934,89.916,50.572,90.531,46.126,90.531z M18.245,79.949l0.106,0.071
				c7.169,6.231,17.292,9.806,27.775,9.806c4.379,0,8.674-0.606,12.768-1.801c13.354-3.899,25.586-16.83,29.085-30.746
				c3.278-13.037,0.444-27.006-7.583-37.368c-3.547-4.578-8.453-8.623-14.582-12.021c-5.49-3.044-12.181-4.654-19.348-4.654
				c-8.631,0-16.959,2.316-23.45,6.522c-11.662,7.556-19.2,20.074-20.164,33.487c-1.02,14.174,4.403,27.172,15.272,36.6
				L18.245,79.949z"/>
		</g>
		<g>
			<path fill="#E30613" d="M78.464,21.388c7.477,9.653,10.286,22.888,7.165,35.297c-3.244,12.906-14.482,25.25-27.48,29.045
				c-13.005,3.797-28.188,1.222-38.299-7.567c0,0-0.068-0.06-0.106-0.088l-0.105-0.077C9.478,69.186,4.238,56.978,5.214,43.43
				c0.911-12.657,7.895-24.407,19.043-31.631C35.597,4.451,52.792,3.434,64.7,10.037C69.786,12.857,74.747,16.588,78.464,21.388
				 M76.98,20.423C66.438,8.126,49.637,3.01,34.108,7.78C22.555,11.33,11.746,21.763,7.853,33.278
				c-3.792,11.215-2.241,24.94,3.794,34.687c8.46,13.661,23.524,20.452,39.666,18.728c14.453-1.543,27.655-12.801,32.572-26.344
				C88.775,46.886,86,30.945,76.98,20.423"/>
		</g>
		<g>
			<path fill="#E30613" d="M52.208,8.627c-0.235,2.842-0.824,5.686-1.249,8.53c0.59,0.47,1.485,0.47,2.263,0.61
				c0.118,1.011-0.376,1.927-0.447,2.938c-1.91-0.165-3.701-0.588-5.539-0.916v-1.011c0.636-3.478,1.201-7.003,1.697-10.551
				l0.118-0.094C50.135,8.204,51.195,8.368,52.208,8.627"/>
		</g>
		<g>
			<path fill="#E30613" d="M62.39,11.729c-1.014,3.173-2.216,6.274-3.559,9.307c-0.566,0.705-1.25,1.104-2.051,1.197
				c-1.39,0.047-2.617-0.587-3.442-1.692l0.896-2.491c0.259-0.117,0.236,0.188,0.354,0.283c0.353,0.305,0.824,0.563,1.296,0.446
				l0.518-0.682l2.758-7.426l0.165-0.118C60.364,10.953,61.448,11.166,62.39,11.729"/>
		</g>
		<g>
			<path fill="#E30613" d="M32.812,20.354c0.542,1.01,0.471,2.397-0.165,3.337c-0.824,0.94-1.979,1.692-3.3,1.527
				c-0.471-0.752-1.084-1.457-1.342-2.326c0.589-0.118,1.414-0.141,1.532-0.893l-0.283-0.846l-4.195-6.604v-0.211
				c0.942-0.564,1.838-1.269,2.828-1.692L32.812,20.354"/>
		</g>
		<g>
			<path fill="#E30613" d="M46.67,13.585v1.035l-5.043,0.376c-0.189-0.353-0.377-1.081-0.046-1.458
				c1.649-0.094,3.347-0.258,4.973-0.282L46.67,13.585"/>
		</g>
		<g>
			<path fill="#E30613" d="M68.094,15.113v0.446c-1.625,2.162-3.512,4.23-4.902,6.487c-0.283,0.422,0.188,0.798,0.448,0.963
				c1.107-0.164,1.531-1.41,2.191-2.138l3.63-4.629c0.943,0.517,1.768,1.245,2.664,1.856v0.282l-5.209,6.886
				c-0.919,1.104-2.333,1.362-3.677,1.127c-1.508-0.54-3.11-1.763-3.558-3.384c-0.518-1.855,0.729-3.243,1.744-4.629l4.03-5.077
				C66.398,13.726,67.222,14.525,68.094,15.113"/>
		</g>
		<g>
			<path fill="#E30613" d="M36.7,9.308c2.074,3.478,3.889,7.074,5.845,10.599c-0.99,0.47-2.074,0.681-3.181,0.916
				c-0.495-0.423-0.307-1.786-1.343-1.315c-0.377,0.282-0.942,0.14-1.203,0.563c-0.094,0.564,0.496,1.504-0.282,1.692
				c-0.919,0.188-1.768,0.564-2.71,0.751l-0.118-0.187L33.26,10.483l0.118-0.211C34.462,9.896,35.569,9.567,36.7,9.308
				 M37.455,17.041c-0.283-0.847-0.542-1.716-1.131-2.374c-0.048,0.87,0,1.833,0.376,2.585
				C37.007,17.298,37.242,17.228,37.455,17.041"/>
		</g>
		<g>
			<path fill="#E30613" d="M76.485,23.408c-0.66,1.387-1.956,2.515-2.663,3.901l0.118,0.094c1.226-0.682,2.38-1.527,3.559-2.35
				c0.707,0.611,1.202,1.527,1.814,2.303v0.235c-3.181,2.28-6.386,4.489-9.567,6.769H69.58l-1.65-2.327v-0.329
				c0.826-1.246,1.862-2.538,2.545-3.831h-0.283l-3.323,2.256h-0.283l-1.65-2.374c3.111-2.373,6.364-4.676,9.569-7.002h0.165
				L76.485,23.408"/>
		</g>
		<g>
			<path fill="#E30613" d="M27.839,23.973c0.565,1.175,0.448,2.914-0.354,3.947c-1.037,1.363-2.592,2.35-4.455,1.927
				c-2.946-0.987-6.175-3.807-6.339-7.12c0.023-1.551,0.896-2.915,2.263-3.784c1.485-0.87,3.512-0.563,4.855,0.4
				C25.53,20.448,27.014,22.163,27.839,23.973 M22.631,22.962c-0.59-0.494-1.155-1.269-2.05-1.199
				c-0.354,0.212-0.661,0.447-0.613,0.917c0.778,1.574,2.31,2.914,3.723,3.877c0.425,0.258,0.967,0.07,1.203-0.329
				C24.988,24.865,23.526,23.878,22.631,22.962"/>
		</g>
		<g>
			<path fill="#E30613" d="M18.034,28.648c0.401,0.541,0.283,1.292,0.636,1.856l5.492,0.283l0.095,0.117
				c-0.448,1.034-0.895,2.115-1.58,2.985c-1.296-0.024-2.663-0.376-4.007-0.329c0.825,0.917,2.146,1.174,3.159,1.927v0.328
				c-0.519,0.87-0.919,1.786-1.461,2.656c-3.559-1.622-6.976-3.525-10.417-5.358v-0.399c1.367-2.092,2.192-6.274,5.728-5.641
				C16.62,27.309,17.469,27.85,18.034,28.648 M16.172,31.54c-0.165-0.47-0.659-0.894-1.131-0.964
				c-0.472-0.047-0.896-0.211-1.25,0.212c0.025,0.141-0.046,0.306,0.071,0.4c0.707,0.281,1.32,0.869,2.097,1.01
				C16.196,32.103,16.196,31.798,16.172,31.54"/>
		</g>
		<g>
			<path fill="#E30613" d="M82.59,33.795c0.589,1.269,0.659,3.102-0.284,4.23c-0.307,0.493-0.825,0.916-1.367,1.057
				c-0.471-0.823-1.32-1.504-1.627-2.421c0.331-0.259,0.731-0.588,0.731-1.01c0.024-0.376-0.307-0.705-0.637-0.846
				c-1.792-0.094-3.441,0.494-4.973,1.245c-0.354,0.259-0.8,0.658-0.612,1.128c0.07,0.212,0.283,0.423,0.495,0.494
				c0.448,0.024,1.061,0.047,1.132-0.446c-0.118-0.165-0.071-0.423-0.165-0.611c0.729-0.353,1.531-0.541,2.333-0.682
				c0.26,1.364,1.038,2.608,1.061,3.995c-1.932,0.565-4.549,1.528-6.434,0.165c-1.202-0.893-1.579-2.28-1.532-3.666
				c0.07-2.303,2.498-3.83,4.408-4.512C77.639,31.116,81.198,30.976,82.59,33.795"/>
		</g>
		<g>
			<path fill="#E30613" d="M11.765,35.863c0.213,0.612-0.754,1.88,0.401,2.091l8.037,1.293c0.283,0.635-0.091,1.245-0.118,1.88
				c-0.021,0.494-0.447,0.822-0.282,1.41l-0.119,0.093l-8.438-1.456c-0.565,0.376-0.494,1.222-0.66,1.856
				c-0.918,0.047-1.814-0.258-2.732-0.4v-0.939l1.201-6.274C9.997,35.488,10.87,35.722,11.765,35.863"/>
		</g>
		<g>
			<path fill="#FFFFFF" d="M53.057,41.973c-0.142,0.117-0.165,0.4-0.4,0.376C52.539,42.067,52.869,41.973,53.057,41.973"/>
		</g>
		<g>
			<path fill="#E30613" d="M84.286,41.456c-0.047,2.186,1.014,5.194-0.919,6.886c-0.636,0.633-1.649,0.681-2.475,0.563
				c-0.802-0.047-1.249-0.776-1.768-1.292c-0.448,0.258-0.354,0.87-0.73,1.222c-0.731,0.987-2.002,1.199-3.158,0.917
				c-3.37-1.175-2.475-5.029-2.899-7.896c1.531-0.446,3.275-0.305,4.878-0.563c2.263-0.094,4.524-0.518,6.906-0.518L84.286,41.456
				 M81.953,44.793c0-0.517-0.686-0.338-1.014-0.282c-0.355,0.061-1.155-0.023-0.849,0.611c0.165,0.493,0.684,0.61,1.132,0.61
				C81.646,45.592,81.976,45.263,81.953,44.793 M77.616,45.169l-0.188-0.328c-0.66,0.069-1.391,0.069-2.027,0.234
				c-0.047,0.305,0.046,0.705,0.329,0.939c0.354,0.212,0.873,0.353,1.25,0.118C77.357,45.992,77.639,45.592,77.616,45.169"/>
		</g>
		<g>
			<path fill="#E30613" d="M14.876,47.425c0.047,0.657,0.094,1.315,0.4,1.88l4.243-0.518l0.447,3.219l-0.235,0.165L8.418,53.747
				c-0.235,0-0.094-0.282-0.211-0.4l-0.731-5.452c0.872-0.234,1.721-0.47,2.71-0.47c0.189,0.845,0.071,1.786,0.567,2.491
				c0.518-0.023,1.366,0.141,1.625-0.447c-0.141-0.657-0.141-1.362-0.212-2.044c0.73-0.375,1.697-0.188,2.475-0.447L14.876,47.425"
				/>
		</g>
		<g>
			<path fill="#E30613" d="M84.45,49.798c0,1.151-0.471,2.279-0.613,3.455c-1.083,0.282-2.168,0.094-3.228,0.377v0.187l2.662,1.34
				l0.095,0.235l-0.73,3.267h-0.283l-5.987-3.996c-1.649-0.352-3.111-0.681-4.761-1.033c-0.141-1.128,0.471-2.093,0.566-3.197
				l0.165-0.118l4.595,0.893C79.478,50.833,81.906,50.198,84.45,49.798"/>
		</g>
		<g>
			<path fill="#E30613" d="M20.202,53.253c0.26,1.082,0.802,2.068,0.943,3.197l-0.33,0.235c-3.677,0.986-7.236,2.326-10.983,3.148
				c-0.307-1.034-0.73-2.045-0.895-3.148l0.895-0.401C13.32,55.345,16.692,54.146,20.202,53.253"/>
		</g>
		<g>
			<path fill="#E30613" d="M74.152,58.776c0.636,2.374-0.165,4.77-0.212,7.167c0.212,1.457,2.003,2.562,1.179,4.159
				c-0.542,0.777-1.51,0.705-2.098,1.246c0.024,0.564-0.141,1.175-0.73,1.411c-0.259,0.046-0.566,0.094-0.684,0.398
				c-0.024,0.612,0.189,1.575-0.612,1.858c-0.896,0.094-1.933-1.927-2.663-0.235c-0.825-0.095-1.061-1.246-2.028-1.058
				c-0.683-0.753-0.848-1.998-0.517-2.891c0.07-2.891,1.225-5.617,2.592-8.107c0.542-0.164,0.259,0.588,0.565,0.563
				c0.542-0.892,0.873-1.856,0.967-2.938c-0.235-0.797-0.707-1.479-1.414-2.09c0-0.634,0.612-0.799,1.013-1.175
				c0.683-0.259,1.438-0.259,2.097,0c2.028,1.551,1.131,4.23,1.202,6.368l0.094,0.118l0.235-0.353
				c0.189-1.832,0.707-3.947-0.447-5.522c-0.353-0.682-1.674-1.152-1.014-1.903C73.185,55.956,73.703,57.625,74.152,58.776
				 M68.047,65.661L68,65.543c-0.165,0.376-0.424,0.681-0.401,1.129c-0.777,1.527-1.178,3.29-1.083,5.122
				c-0.095,1.058,1.226,0.658,1.414,1.575c0.448,0.375,0.66-0.4,0.966-0.565c0.636-0.822,0.943,0.494,1.579,0.518
				c0.378-0.353,0-0.799,0.119-1.246c0.023-0.917,1.532-0.423,1.177-1.527c0.331-0.988,1.51-0.588,2.216-1.011
				c0.165-0.234,0.165-0.705,0-0.964c-0.353-0.305-0.824,0.141-1.178-0.164c-0.471-0.329-0.873,0.118-1.249,0.282
				c-0.896-0.587-1.037,0.565-1.697,0.847c-0.448,0.023-0.778-0.234-1.085-0.494c-0.376-0.141-0.777,0.212-1.06-0.235
				C67.599,67.73,67.599,66.554,68.047,65.661"/>
		</g>
		<g>
			<path fill="#DC2F34" d="M46.223,26.792c0.471-0.071,1.06-0.564,1.461-0.234c0.024-0.071,0.118-0.047,0.165-0.047
				c0.613,1.058-0.188,2.232,0.07,3.267c0.331,0.329,1.273,0.306,1.014,0.963v0.235c0.825,0.353,1.839,0.212,2.546,0.893
				c0.589,0.094,1.319-0.939,1.697,0c0.071,0.729-0.495,1.152-1.014,1.528c-0.517,0.188-0.895-0.705-1.248-0.07
				c-0.025,0.211-0.025,0.47,0.211,0.517c0.472-0.046,1.084-0.141,1.25,0.4c0.118,0.328-0.259,0.822,0.118,1.127
				c0.612,0,0.212-0.822,0.565-1.127c0.118-0.259,0.448-0.235,0.731-0.235c0.542,0.54-0.118,1.362,0.448,1.856
				c0.07,0.54-0.283,0.752-0.566,1.128c-0.33,0.211-0.566-0.07-0.778-0.281c-0.377,0.493,0.495,0.892,0.565,1.41
				c0.496,0.047,0.377-0.776,0.967-0.564c0.259,0.234,0.329,0.588,0.212,0.917c-0.236,0.352-0.589,0.399-0.966,0.446
				c0.047,0.587-0.07,1.151-0.095,1.645c0.542-0.306,1.061-0.823,1.697-0.752c0.118,0.211,0.235,0.494,0.095,0.752
				c-0.354,0.118-0.943,0.211-0.943,0.729c0.141,0.587-0.188,1.104-0.636,1.527c-0.331,0.164-0.685,0.494-0.848,0.846
				c-0.496,0.234-1.203,0.141-1.532,0.728c-0.047,0.683,0.825,1.011,0.919,1.574c0.118,0.118,0.235,0.306,0.448,0.235
				c0.471-0.494-0.425-0.893-0.165-1.411c0.589-0.422,1.249-0.846,1.979-0.752c0.283,0.189-0.047,0.376-0.071,0.564
				c-0.282,0.4-0.73,0.376-1.061,0.682c0.213,0.634,0.566,1.433,0.048,2.044c-0.307,0.235-0.471,0.541-0.565,0.893
				c-0.543,0.258-1.108,0.563-1.532,1.01c-0.142-0.259-0.4-0.564-0.212-0.893c0.259-0.353,0.801-0.423,0.895-0.846
				c-0.471-0.141-1.296,0.329-1.579-0.446c-0.8-4.042,0.519-8.742-1.132-12.644c-0.188-2.256-2.498-3.642-2.592-5.922
				c-0.612-0.188-1.014,0.752-1.649,0.329c-0.118-0.399-0.165-0.963-0.683-1.128c-0.377,0.258-0.613,0.775-0.566,1.198
				c3.252,1.034,4.808,4.371,5.444,7.45c0.071,2.585,0.825,5.1,0.212,7.779c-0.259,2.631,0.637,5.005,2.545,6.698
				c0.119,0.023,0.307,0,0.236-0.165v-0.165c0.919,0.095,1.758,0.743,2.71,0.964c3.904,0.907,7.966,2.09,10.418,5.805
				c0.99,0.822,1.791-0.494,2.64-0.847c0.848-0.235,1.531-1.01,2.498-0.799c0.188,0.164,0.212,0.447,0.047,0.634
				c-0.423,0.4-1.013,0.376-1.508,0.611c-1.343,0.329-2.522,2.656-3.913,1.199l-0.118,0.094c0.259,0.729,0.188,1.551,0.448,2.256
				c0.354-0.094,0.354-0.539,0.684-0.728c0.66-0.423,1.509-0.964,2.334-0.494c0.353,0.142,0.637,0.541,0.777,0.893
				c0.118,0.683,0.07,1.457-0.401,1.927c-0.141-0.046-0.33-0.117-0.376-0.281c0.047-0.705,0.447-1.646-0.401-2.045
				c-2.027-0.399-1.509,1.927-2.263,2.891c-1.438,2.467-4.313,3.83-5.445,6.485c-0.683,1.505-0.848,3.243-1.626,4.724
				c-0.636,0.588-1.649,0.563-2.428,0.446c0.047-0.211,0.331-0.281,0.566-0.329c2.333,0.235,1.296-2.609,2.145-3.83
				c0.189-0.846,0.778-1.527,0.967-2.374H59.89c-1.32,1.575-1.768,3.313-2.263,5.24c-1.036,0.611-2.427,0.353-3.322,1.292
				c0.188,0.4,0.966-0.07,1.013,0.4c-0.73,0.376-1.579,0.4-2.262,0.846c-1.414,0.352-1.65,2.139-3.158,2.256
				c-0.778,0.305-0.331,1.292-1.084,1.692c-1.084,0.634-2.31,1.104-3.559,1.128c-0.542-0.376-0.66-1.035-0.518-1.622
				c0.636-1.48,1.539-3.271,3.181-3.9c2.647-1.016,5.162-2.303,7.401-4.277c0.213-0.705,0.613-1.88-0.118-2.444
				c-0.92,0.142-0.401,1.457-1.344,1.599c-0.472-0.071-1.037,0.517-1.249-0.071c0.471-0.164,1.178-0.07,1.296-0.729
				c0.047-0.094-0.047-0.165-0.118-0.234c-1.202,0.518-2.758,0.212-3.676,1.411c-0.095,1.245-1.509,1.034-2.146,1.81
				c-0.801,0.399-1.272,1.197-2.144,1.41c-0.402-0.587,0.754-1.081,0.211-1.622c-1.909,0.47-4.077,1.527-4.69,3.666
				c0.424,0.329,0.801,0.047,1.296,0.047c1.107-0.376,0.118-2.208,1.532-2.304c0.235,0.377,0.094,0.94,0.637,1.128
				c0.164,0.752-0.354,1.128-0.803,1.574c-0.825,0.87-2.451,0.729-3.44,0.33c-0.213-0.188-0.519-0.282-0.636-0.565
				c0.329-1.597,1.437-3.031,2.898-3.877c2.475-1.058,4.997-2.067,7.166-3.9c0.518-0.635,1.271-1.153,1.202-2.021
				c-0.283-1.317-0.119-2.773-0.402-4.066l0.166-0.118c0.66,0.423,0.141,1.433,0.448,2.021c0.165,0.798,0.141,1.668,0.472,2.373
				c0.259,0.165,0.4-0.235,0.447-0.446c-0.211-1.128-0.023-2.208-0.401-3.266c0.07-0.306,0.047-0.729,0.448-0.8
				c0.943,0.165,1.933,0.565,2.428,1.41c-0.212,1.575,1.249,3.22-0.165,4.513c0.212,0.611,0.66-0.4,1.131,0
				c0.377,0.517,0.424,1.175,0.636,1.762c0.071,0,0.166-0.094,0.166-0.188c0.73-1.669-0.637-2.892-0.565-4.513
				c-0.354-1.223,0.235-2.679-0.283-3.76c-0.424,0.023-0.354,0.893-0.919,0.493l0.188,0.164c-0.282,0.189-0.873,0.165-1.202,0
				c-1.273-0.844-2.899-0.868-4.455-1.057l-0.189,0.165c0.26,0.212,0.731,0.259,0.802,0.564c-0.472,0.283-1.203,0.165-1.745,0.118
				c-2.285-0.025-4.312-0.729-6.339-1.363c-1.957-0.659-3.253-2.443-3.959-4.277l0.046-0.235c0.613,0.047,0.518,0.87,1.132,1.011
				c0.141-0.518-0.071-1.34,0.4-1.786c-0.047-0.142-0.141-0.306-0.283-0.353c-0.731,0-1.508-0.071-2.263,0.118
				c0,0.282,0.59,0.658,0.048,0.846c-2.31-0.329-4.596-0.705-6.883-1.081c-0.895,0.047-0.188,0.986-0.4,1.41
				c0.448,0.306,0.708,0.752,0.896,1.199c0.046,1.411-0.92,2.421-1.462,3.595c-0.707,0.141-0.896-0.775-1.203-1.222
				c-0.636-1.245-0.778-2.679-1.179-4.018c-0.423,0.023-0.447,0.492-0.683,0.728c-0.566,1.388-0.967,2.844-1.179,4.347
				c-0.66,1.317-2.168,1.976-3.394,2.609c-0.188-0.705,0.071-1.504,0.213-2.209c1.271-3.102,1.391-6.674,3.912-9.259
				c2.074-1.316,0.519-4.136,2.428-5.64c0.589-0.329,1.061-0.541,1.767-0.376l5.539,2.138l0.212-0.07
				c2.122-3.267,5.303-5.945,7.071-9.353c0.07-0.282,0.188-0.611,0.07-0.893c-0.708-0.893-1.932-0.683-2.946-0.635
				c-0.99,0.541-2.122,0.917-3.276,0.917c-1.132-0.517-2.404-1.41-2.781-2.656c-0.071-0.893,0.707-1.41,1.366-1.81
				c1.721-0.917,3.819-1.198,5.091-2.937c0.966-0.964,2.545-0.893,3.158-2.374c0.661-0.634,0.896-1.974,2.051-1.739L46.223,26.792
				 M41.745,31.986c-0.213-0.987-1.084-0.07-1.461,0.117c0.069,0.705,0.966,0.306,1.414,0.329L41.745,31.986 M33.872,49.916
				c-1.271-0.893-2.404-2.397-4.006-2.584c-0.283,0.234-0.589,0.587-0.612,1.01c0.401-0.235,0.967-0.541,1.415-0.165
				c0.023,0.376-0.472,0.658-0.684,1.01c-0.212,0.635,0.331,1.128,0.613,1.575c-0.095,0.352-0.448,0.282-0.731,0.282
				c-0.354-0.023-0.683-0.47-0.801-0.799c-0.306-0.023-0.283,0.376-0.566,0.517c-0.541,0.187-1.366,0.187-1.508,0.892
				c3.206-0.187,6.364-0.869,9.428-1.574c0.637-0.282,1.485-0.282,1.814-1.058c-0.517-0.563-0.872,0.329-1.46,0.094
				c-0.308-0.07-0.33-0.54-0.684-0.493c-0.353,0.375-0.353,0.963-0.849,1.246C34.792,50.175,34.368,49.963,33.872,49.916
				 M28.452,53.3c-0.425-0.399-0.896,0.046-1.367,0.046c0,0.329,0.234,0.541,0.354,0.8C27.816,53.981,28.381,53.747,28.452,53.3
				 M33.426,53.911c-0.755-0.235-1.557-0.423-2.381-0.494l0.118,0.165C31.893,53.794,32.718,54.146,33.426,53.911 M29.63,56.731
				c-1.154-0.188-0.565-1.716-1.791-1.74c-0.283,0.752,0.023,1.528,0.165,2.257c0.283,0.564,0.283,1.41,0.896,1.691
				C29.277,58.259,29.865,57.529,29.63,56.731 M24.091,60.349c0.025-0.282,0.236-0.822-0.164-0.962l-0.684,0.916
				c-0.33,0.118-0.778-0.141-0.967,0.282c-0.047,0.282-0.165,0.729,0.118,0.94C23.078,61.407,23.69,60.867,24.091,60.349
				 M50.394,74.85c-1.885,0.069-3.158,1.598-4.006,3.102c0.071,0.399-0.377,0.751-0.071,1.128c0.66-0.165,1.438-0.07,1.885-0.729
				c0.165-1.011,1.273-1.246,2.027-1.599c0.213-0.258,0.542-0.541,0.401-0.893c-0.307-0.07-0.613,0.024-0.918-0.164
				C49.805,75.343,50.371,75.272,50.394,74.85"/>
		</g>
		<g>
			<path fill="#E30613" d="M20.347,71.572h-1.715v-3.38h-1.345v-1.168c0.908-0.017,1.568-0.33,1.757-1.333h1.303V71.572"/>
		</g>
		<g>
			<path fill="#E30613" d="M23.927,70.067c0.09,0.321,0.354,0.46,0.693,0.46c0.634,0,0.898-0.576,0.89-1.332
				c-0.461,0.32-0.808,0.418-1.36,0.418c-1.353,0-1.964-1.043-1.964-1.875c0-1.415,1.015-2.048,2.326-2.048
				c1.691,0,2.731,0.913,2.731,3.019c0,1.784-0.924,2.985-2.541,2.985c-1.088,0-2.128-0.354-2.375-1.53L23.927,70.067z
				 M25.437,67.658c0-0.419-0.363-0.748-0.775-0.748c-0.503,0-0.76,0.313-0.76,0.806c0,0.46,0.298,0.773,0.727,0.773
				C25.214,68.472,25.437,68.109,25.437,67.658"/>
		</g>
		<g>
			<path fill="#E30613" d="M27.689,68.989l2.714-3.216h1.601v3.315h0.725v1.275h-0.725v1.208H30.37v-1.208h-2.681V68.989z
				 M28.984,69.088h1.386V67.32L28.984,69.088"/>
		</g>
		<g>
			<path fill="#E30613" d="M33.414,67.328c0-1.118,1.13-1.636,2.383-1.636c1.32,0,2.236,0.674,2.236,1.604
				c0,0.559-0.223,0.986-0.768,1.2c0.619,0.239,0.974,0.676,0.974,1.358c0,1.168-1.039,1.843-2.5,1.843
				c-1.362,0-2.516-0.568-2.516-1.843c0-0.692,0.354-1.036,0.939-1.315C33.711,68.291,33.414,68.045,33.414,67.328 M36.524,69.772
				c0-0.469-0.322-0.749-0.776-0.749c-0.478,0-0.808,0.247-0.808,0.757c0,0.558,0.528,0.772,1.015,0.683
				C36.343,70.413,36.524,70.15,36.524,69.772 M36.449,67.477c0-0.396-0.313-0.626-0.709-0.626c-0.421,0-0.75,0.214-0.743,0.642
				c0,0.428,0.338,0.6,0.727,0.6C36.112,68.093,36.449,67.888,36.449,67.477"/>
		</g>
	</g>
</g>
</svg>
